<mxfile host="app.diagrams.net" modified="2024-03-26T05:18:15.955Z" agent="Mozilla/5.0 (Windows NT 10.0; Win64; x64) AppleWebKit/537.36 (KHTML, like Gecko) Chrome/123.0.0.0 Safari/537.36" version="24.0.1" etag="XIGFgGKE0OUV8XmPLuSB" type="github">
  <diagram name="Halaman-1" id="Pw77LuSBfiPwMy6fb8e8">
    <mxGraphModel>
      <root>
        <mxCell id="0" />
        <mxCell id="1" parent="0" />
      </root>
    </mxGraphModel>
  </diagram>
</mxfile>
